<svg xmlns="http://www.w3.org/2000/svg" xmlns:xlink="http://www.w3.org/1999/xlink" width="500" zoomAndPan="magnify" viewBox="0 0 375 374.999991" height="500" preserveAspectRatio="xMidYMid meet" version="1.0"><defs><g/><clipPath id="ba55f81943"><path d="M 37.5 37.5 L 335 37.5 L 335 333 L 37.5 333 Z M 37.5 37.5 " clip-rule="nonzero"/></clipPath><clipPath id="3458b10389"><path d="M 40 42 L 337.5 42 L 337.5 337.5 L 40 337.5 Z M 40 42 " clip-rule="nonzero"/></clipPath></defs><path fill="#358e9d" d="M 329.128906 187.074219 C 329.066406 217.210938 319.019531 247.089844 301.246094 271.363281 C 284.3125 294.546875 260.488281 312.445312 233.507812 322.167969 C 205.496094 332.277344 174.460938 333.4375 145.804688 325.582031 C 118.054688 317.917969 92.875 301.886719 74.140625 279.992188 C 55.207031 257.84375 43.230469 230.152344 40.203125 201.175781 C 36.984375 170.207031 45.035156 138.332031 61.582031 112.058594 C 76.84375 87.785156 99.316406 68.339844 125.523438 56.683594 C 152.824219 44.578125 183.734375 41.230469 213.03125 47.152344 C 241.234375 52.820312 267.441406 67.113281 287.597656 87.65625 C 307.878906 108.324219 321.722656 134.917969 326.875 163.445312 C 328.355469 171.558594 329.128906 179.800781 329.128906 188.042969 C 329.128906 190.230469 329.195312 188.105469 329.128906 187.074219 C 329.066406 157.519531 320.695312 128.671875 303.953125 104.203125 C 287.082031 79.605469 262.675781 60.417969 234.730469 50.050781 C 205.753906 39.296875 173.429688 38.136719 143.679688 46.832031 C 114.964844 55.203125 89.207031 72.585938 70.597656 96.089844 C 51.921875 119.65625 41.042969 148.761719 39.558594 178.769531 C 38.144531 207.550781 44.132812 236.140625 58.554688 261.191406 C 73.300781 286.882812 95.96875 307.808594 122.820312 320.429688 C 150.894531 333.628906 183.089844 337.367188 213.480469 331.121094 C 242.78125 325.132812 269.824219 309.871094 290.238281 287.976562 C 310.777344 266.019531 324.105469 237.75 327.96875 207.9375 C 328.808594 201.304688 329.195312 194.675781 329.195312 187.976562 C 329.195312 186.945312 329.128906 184.820312 329.128906 187.074219 Z M 329.128906 187.074219 " fill-opacity="1" fill-rule="nonzero"/><path fill="#358e9d" d="M 224.042969 326.933594 C 195.257812 333.628906 164.867188 331.570312 137.371094 320.6875 C 110.648438 310.0625 87.339844 291.519531 71.113281 267.757812 C 53.792969 242.453125 44.195312 210.835938 46.0625 180.058594 C 47.867188 151.015625 58.683594 122.8125 76.585938 99.890625 C 113.351562 52.882812 177.292969 32.988281 234.214844 50.953125 C 261.324219 59.515625 285.664062 76.066406 303.5 98.214844 C 322.496094 121.71875 333.699219 151.082031 335.375 181.214844 C 338.722656 240.972656 299.960938 298.214844 245.035156 320.300781 C 238.207031 323.007812 231.191406 325.195312 224.042969 326.933594 C 223.785156 327 224.234375 330.089844 224.042969 330.152344 C 253.792969 323.007812 280.769531 306.714844 300.734375 283.46875 C 320.242188 260.738281 332.347656 232.019531 335.054688 202.207031 C 337.628906 173.746094 332.542969 144.769531 319.40625 119.335938 C 305.625 92.613281 283.410156 70.65625 256.625 56.941406 C 229.707031 43.097656 198.671875 38.074219 168.730469 42.710938 C 138.335938 47.410156 109.8125 61.835938 88.046875 83.664062 C 66.992188 104.847656 52.761719 132.472656 47.800781 161.964844 C 43.101562 189.910156 46.257812 219.398438 57.269531 245.542969 C 68.921875 273.230469 89.335938 296.863281 114.964844 312.640625 C 140.71875 328.414062 171.242188 335.949219 201.375 333.628906 C 209.039062 333.050781 216.574219 331.828125 224.042969 330.089844 C 224.300781 330.089844 223.847656 327 224.042969 326.933594 Z M 224.042969 326.933594 " fill-opacity="1" fill-rule="nonzero"/><g clip-path="url(#ba55f81943)"><path fill="#358e9d" d="M 256.238281 313.734375 C 229.257812 328.222656 197.769531 333.695312 167.507812 329.511719 C 138.660156 325.515625 111.164062 312.960938 89.464844 293.515625 C 66.925781 273.425781 50.894531 246.25 44.132812 216.824219 C 37.5625 188.363281 39.753906 158.101562 50.25 130.863281 C 60.875 103.300781 79.871094 79.21875 104.273438 62.542969 C 130.351562 44.707031 162.742188 36.527344 194.164062 38.652344 C 223.207031 40.585938 251.410156 51.210938 274.460938 68.980469 C 298.480469 87.527344 316.316406 113.539062 325.203125 142.515625 C 333.765625 170.460938 333.636719 200.726562 325.074219 228.609375 C 316.445312 256.683594 299.316406 281.925781 276.328125 300.210938 C 269.824219 305.425781 262.804688 310.128906 255.464844 314.121094 C 253.46875 315.214844 255.335938 314.25 256.238281 313.734375 C 282.574219 299.4375 304.273438 277.996094 318.054688 251.273438 C 331.898438 224.359375 337.242188 193.320312 332.992188 163.316406 C 328.613281 132.214844 314.0625 102.851562 291.976562 80.507812 C 270.660156 58.871094 242.652344 44.320312 212.773438 39.039062 C 182.765625 33.757812 151.472656 38.074219 123.976562 51.210938 C 97.640625 63.832031 74.976562 82.953125 59.585938 107.875 C 43.746094 133.503906 36.019531 163.832031 37.757812 193.835938 C 39.558594 225.261719 51.730469 255.78125 71.949219 279.929688 C 91.460938 303.171875 118.117188 319.980469 147.480469 327.640625 C 176.972656 335.371094 208.652344 333.628906 237.113281 322.683594 C 243.425781 320.238281 249.542969 317.339844 255.53125 314.121094 C 256.367188 313.734375 258.296875 312.640625 256.238281 313.734375 Z M 256.238281 313.734375 " fill-opacity="1" fill-rule="nonzero"/></g><g clip-path="url(#3458b10389)"><path fill="#358e9d" d="M 80.707031 287.398438 C 60.808594 264.925781 48.058594 236.851562 44.519531 207.039062 C 41.105469 178.0625 46.386719 148.3125 59.78125 122.363281 C 74.011719 94.675781 97.640625 70.847656 125.972656 57.714844 C 152.761719 45.285156 183.152344 41.359375 212.257812 46.25 C 271.949219 56.359375 320.566406 103.816406 331.960938 163.316406 C 337.371094 191.648438 334.34375 221.394531 323.203125 247.988281 C 311.421875 276.257812 290.621094 300.40625 264.542969 316.503906 C 212.839844 348.3125 143.039062 341.292969 96.804688 302.980469 C 91.074219 298.152344 85.730469 292.933594 80.707031 287.398438 C 80.511719 287.203125 78.003906 289.136719 77.808594 288.941406 C 98.542969 312.058594 126.101562 328.285156 156.496094 334.855469 C 186.179688 341.292969 217.667969 338.265625 245.613281 326.289062 C 272.207031 314.828125 295.644531 296.347656 312 272.394531 C 329.195312 247.21875 338.144531 216.761719 337.4375 186.304688 C 336.726562 155.589844 326.296875 125.453125 307.6875 100.984375 C 288.820312 76.128906 262.226562 57.585938 232.21875 48.699219 C 203.242188 40.070312 171.628906 40.648438 142.972656 50.4375 C 115.734375 59.773438 90.878906 76.773438 72.851562 99.246094 C 53.792969 123.007812 42.523438 152.625 40.847656 183.082031 C 39.175781 213.734375 47.222656 244.511719 63.773438 270.335938 C 67.957031 276.902344 72.722656 283.082031 77.875 288.878906 C 78.066406 289.136719 80.578125 287.203125 80.707031 287.398438 Z M 80.707031 287.398438 " fill-opacity="1" fill-rule="nonzero"/></g><g fill="#1d4e56" fill-opacity="1"><g transform="translate(115.902843, 203.113683)"><g><path d="M 39.5 -37.296875 L 40.578125 -37.296875 C 42.398438 -37.523438 43.523438 -37.128906 43.953125 -36.109375 C 44.316406 -35.617188 44.53125 -34.945312 44.59375 -34.09375 L 44.65625 -33.46875 C 44.71875 -32.613281 44 -29.113281 42.5 -22.96875 C 41.601562 -20.1875 40.109375 -14.316406 38.015625 -5.359375 C 37.265625 -1.785156 35.425781 0.628906 32.5 1.890625 C 29.582031 3.148438 28.132812 2.222656 28.15625 -0.890625 C 29.269531 -5.160156 30.675781 -11.648438 32.375 -20.359375 C 32.570312 -20.359375 32.632812 -20.878906 32.5625 -21.921875 C 30.601562 -19.054688 28.953125 -16.472656 27.609375 -14.171875 C 24.253906 -9.160156 21.953125 -6.222656 20.703125 -5.359375 C 20.640625 -5.359375 20.332031 -5.316406 19.78125 -5.234375 C 18.695312 -5.472656 17.8125 -6.203125 17.125 -7.421875 C 16.570312 -8.859375 16.242188 -10.191406 16.140625 -11.421875 C 16.210938 -14.554688 16.066406 -21.019531 15.703125 -30.8125 C 15.273438 -30.539062 14.582031 -29.328125 13.625 -27.171875 C 12.257812 -23.648438 9.890625 -15.050781 6.515625 -1.375 C 3.640625 0.5625 1.238281 0.253906 -0.6875 -2.296875 C -0.882812 -6.460938 0.328125 -12.742188 2.953125 -21.140625 C 5.296875 -27.597656 7.285156 -31.914062 8.921875 -34.09375 C 9.472656 -34.707031 10.898438 -35.234375 13.203125 -35.671875 C 14.867188 -35.960938 16.113281 -35.734375 16.9375 -34.984375 C 17.769531 -34.234375 18.351562 -32.828125 18.6875 -30.765625 L 18.890625 -28.15625 C 19.054688 -25.96875 19.003906 -20.191406 18.734375 -10.828125 C 18.910156 -10.410156 19.085938 -10.203125 19.265625 -10.203125 C 19.796875 -10.035156 21.6875 -12.671875 24.9375 -18.109375 C 27.78125 -22.785156 31.503906 -28.015625 36.109375 -33.796875 C 38.128906 -35.835938 39.257812 -37.003906 39.5 -37.296875 Z M 39.5 -37.296875 "/></g></g></g><g fill="#1d4e56" fill-opacity="1"><g transform="translate(157.965656, 203.113683)"><g><path d="M 12.515625 -21.375 C 13.859375 -21.78125 14.566406 -21.90625 14.640625 -21.75 C 14.722656 -21.601562 14.765625 -21.3125 14.765625 -20.875 C 14.765625 -20.4375 13.679688 -19.910156 11.515625 -19.296875 C 12.472656 -17.179688 12.953125 -15.804688 12.953125 -15.171875 C 12.953125 -14.535156 12.953125 -14.144531 12.953125 -14 C 12.953125 -13.851562 12.664062 -12.847656 12.09375 -10.984375 C 11.53125 -9.128906 10.660156 -7.796875 9.484375 -6.984375 C 8.304688 -6.179688 7.25 -5.679688 6.3125 -5.484375 C 5.375 -5.285156 4.773438 -5.1875 4.515625 -5.1875 C 4.253906 -5.1875 3.75 -5.1875 3 -5.1875 C 2.25 -5.1875 1.59375 -5.59375 1.03125 -6.40625 C 0.46875 -7.226562 0.125 -8.226562 0 -9.40625 C -0.125 -10.59375 0.0351562 -12.242188 0.484375 -14.359375 C 0.941406 -16.472656 1.695312 -18.054688 2.75 -19.109375 C 3.800781 -20.171875 4.347656 -20.703125 4.390625 -20.703125 C 4.441406 -20.703125 4.835938 -20.769531 5.578125 -20.90625 C 6.316406 -21.039062 7.320312 -21.050781 8.59375 -20.9375 C 9.863281 -20.820312 11.171875 -20.96875 12.515625 -21.375 Z M 4.421875 -11.1875 C 4.421875 -9.84375 4.421875 -9 4.421875 -8.65625 C 4.421875 -8.3125 4.671875 -8.046875 5.171875 -7.859375 C 5.679688 -7.679688 6.269531 -7.804688 6.9375 -8.234375 C 7.613281 -8.671875 8.164062 -9.425781 8.59375 -10.5 C 9.019531 -11.570312 9.234375 -12.519531 9.234375 -13.34375 C 9.234375 -14.164062 9.234375 -14.609375 9.234375 -14.671875 C 9.234375 -14.742188 9.207031 -15.347656 9.15625 -16.484375 C 9.101562 -17.628906 8.8125 -18.351562 8.28125 -18.65625 L 7.765625 -18.65625 C 6.765625 -18.65625 6.078125 -18.25 5.703125 -17.4375 C 5.335938 -16.632812 5.03125 -15.726562 4.78125 -14.71875 C 4.539062 -13.707031 4.421875 -12.53125 4.421875 -11.1875 Z M 8.421875 -28.078125 C 5.671875 -24.046875 3.601562 -22.234375 2.21875 -22.640625 C 0.832031 -23.054688 1.492188 -24.765625 4.203125 -27.765625 C 6.910156 -30.773438 8.566406 -32.28125 9.171875 -32.28125 C 9.785156 -32.28125 10.984375 -30.859375 12.765625 -28.015625 C 14.546875 -25.179688 14.617188 -23.472656 12.984375 -22.890625 C 11.347656 -22.316406 9.828125 -24.046875 8.421875 -28.078125 Z M 4.84375 1.953125 C 2.875 1.953125 1.890625 0.96875 1.890625 -1 C 1.890625 -2.96875 2.875 -3.953125 4.84375 -3.953125 C 6.8125 -3.953125 7.796875 -2.96875 7.796875 -1 C 7.796875 0.96875 6.8125 1.953125 4.84375 1.953125 Z M 4.84375 1.953125 "/></g></g></g><g fill="#1d4e56" fill-opacity="1"><g transform="translate(172.177615, 203.113683)"><g><path d="M 9.21875 -21.640625 L 13.09375 -21.640625 C 14.476562 -20.921875 15.171875 -20.398438 15.171875 -20.078125 C 14.703125 -19.421875 13.078125 -18.863281 10.296875 -18.40625 C 7.515625 -17.945312 5.863281 -15.664062 5.34375 -11.5625 L 5.34375 -10.78125 C 5.34375 -10.070312 5.585938 -9.375 6.078125 -8.6875 C 6.566406 -8 7.4375 -7.65625 8.6875 -7.65625 L 8.96875 -7.65625 C 10.519531 -7.6875 13.519531 -8.957031 17.96875 -11.46875 L 18.203125 -10.9375 L 18.203125 -10.4375 C 14.347656 -7.019531 10.925781 -5.3125 7.9375 -5.3125 C 2.914062 -6.0625 0.40625 -8.226562 0.40625 -11.8125 C 1.269531 -15.445312 2.738281 -18.035156 4.8125 -19.578125 C 6.8125 -20.953125 8.28125 -21.640625 9.21875 -21.640625 Z M 9.21875 -21.640625 "/></g></g></g><g fill="#1d4e56" fill-opacity="1"><g transform="translate(190.011331, 203.113683)"><g/></g></g><g fill="#1d4e56" fill-opacity="1"><g transform="translate(201.655969, 203.113683)"><g><path d="M 23.6875 -17.265625 C 23.363281 -21.222656 22.773438 -25.640625 21.921875 -30.515625 C 19.835938 -25.679688 17.84375 -21.316406 15.9375 -17.421875 C 20.125 -17.128906 22.707031 -17.078125 23.6875 -17.265625 Z M 12.96875 -11.5625 C 11.769531 -9.289062 10.597656 -7.21875 9.453125 -5.34375 C 5.703125 0.800781 1.671875 3.851562 -2.640625 3.8125 L -2.65625 3.6875 C -0.394531 0.46875 1.84375 -3.207031 4.0625 -7.34375 C 4.75 -8.726562 5.519531 -10.351562 6.375 -12.21875 C 2.90625 -12.707031 0.648438 -13.710938 -0.390625 -15.234375 C -1.429688 -16.765625 -1.835938 -18.046875 -1.609375 -19.078125 C -1.390625 -20.117188 -0.8125 -20.320312 0.125 -19.6875 C 1.0625 -19.050781 2.207031 -18.59375 3.5625 -18.3125 C 4.914062 -18.039062 6.703125 -17.9375 8.921875 -18 C 10.328125 -21.207031 11.851562 -24.867188 13.5 -28.984375 C 14.382812 -32.140625 16.015625 -34.253906 18.390625 -35.328125 C 20.773438 -36.410156 23.101562 -36.164062 25.375 -34.59375 C 26.71875 -33.78125 27.675781 -32.523438 28.25 -30.828125 L 28.765625 -28.8125 C 30.347656 -20.46875 30.953125 -14.347656 30.578125 -10.453125 C 29.941406 -2.003906 29.160156 2.671875 28.234375 3.578125 C 27.304688 4.492188 26.492188 4.335938 25.796875 3.109375 C 25.109375 1.878906 24.503906 -2.226562 23.984375 -9.21875 C 23.992188 -10.144531 23.992188 -11.113281 23.984375 -12.125 L 23.546875 -11.984375 C 21.691406 -11.347656 18.164062 -11.207031 12.96875 -11.5625 Z M 12.96875 -11.5625 "/></g></g></g><g fill="#1d4e56" fill-opacity="1"><g transform="translate(233.541186, 203.113683)"><g><path d="M 5.140625 -25.765625 L 5.3125 -25.765625 C 7.46875 -25.765625 8.546875 -24.863281 8.546875 -23.0625 L 8.453125 -21.671875 C 8.140625 -20.078125 7.8125 -18.410156 7.46875 -16.671875 L 7.65625 -16.671875 C 10.863281 -20.472656 13.707031 -22.242188 16.1875 -21.984375 C 18.675781 -21.722656 20.257812 -20.003906 20.9375 -16.828125 C 21.269531 -15.773438 21.488281 -14.925781 21.59375 -14.28125 C 21.59375 -14.15625 21.539062 -14.09375 21.4375 -14.09375 L 21.59375 -12.0625 C 21.59375 -11.25 21.375 -8.585938 20.9375 -4.078125 L 21.09375 -4.078125 C 21.132812 -3.003906 22.191406 -2.882812 24.265625 -3.71875 C 26.335938 -4.550781 26.546875 -4.140625 24.890625 -2.484375 C 23.234375 -0.828125 21.691406 0 20.265625 0 C 18.847656 0 17.59375 -0.679688 16.5 -2.046875 C 15.25 -4.171875 14.625 -6.207031 14.625 -8.15625 C 14.625 -9.257812 14.960938 -12.601562 15.640625 -18.1875 L 15.640625 -18.53125 C 13.941406 -17.945312 12.15625 -16.953125 10.28125 -15.546875 C 8.40625 -14.148438 6.828125 -11.835938 5.546875 -8.609375 C 4.273438 -5.378906 3.289062 -3.476562 2.59375 -2.90625 L 1.90625 -2.90625 C -0.300781 -2.613281 -0.984375 -4.550781 -0.140625 -8.71875 C 1.628906 -15.6875 2.882812 -20.21875 3.625 -22.3125 C 4.375 -24.414062 4.878906 -25.566406 5.140625 -25.765625 Z M 5.140625 -25.765625 "/></g></g></g></svg>